# xmcd CD database file
#
# Track frame offsets:
#	150
#	17010
#	31155
#	48025
#
# Disc length: 826 seconds
#
# Revision: 0
# Processed by: cddbd v1.5.1PL0 Copyright (c) Steve Scherf et al.
# Submitted via: CDex 1.51
#
DISCID=20033804
DTITLE=MAX - LOVE SCREW
DYEAR=2003
DGENRE=JPop
TTITLE0=LOVE SCREW
TTITLE1=Don't Call Me
TTITLE2=LOVE SCREW [INSTRUMENTAL]
TTITLE3=Don't Call Me [INSTRUMENTAL]
EXTD=YEAR: 2003
EXTT0=
EXTT1=
EXTT2=
EXTT3=
PLAYORDER=
